<svg width="128" height="128" viewBox="0 0 128 128" fill="none" xmlns="http://www.w3.org/2000/svg">
<path d="M55.5109 15L21 26.1282L57.3273 38.8462L93.6545 26.1282L55.5109 15Z" fill="#5CE0FD"/>
<path d="M57.3273 77V38.8462L21 26.1282V69.0513L57.3273 77Z" fill="#5CE0FD"/>
<path d="M57.3273 38.8462V77L95 69.0513L93.6545 26.1282L57.3273 38.8462Z" fill="#5CE0FD"/>
<path d="M57.3273 38.8462V77M57.3273 38.8462L21 26.1282M57.3273 38.8462L93.6545 26.1282M57.3273 77L21 69.0513V26.1282M57.3273 77L95 69.0513L93.6545 26.1282M21 26.1282L55.5109 15L93.6545 26.1282" stroke="white" stroke-width="2"/>
<path d="M84.5109 38L50 49.1282L86.3273 61.8462L122.655 49.1282L84.5109 38Z" fill="#FD5C65"/>
<path d="M86.3273 100V61.8462L50 49.1282V92.0513L86.3273 100Z" fill="#FD5C65"/>
<path d="M86.3273 61.8462V100L124 92.0513L122.655 49.1282L86.3273 61.8462Z" fill="#FD5C65"/>
<path d="M86.3273 61.8462V100M86.3273 61.8462L50 49.1282M86.3273 61.8462L122.655 49.1282M86.3273 100L50 92.0513V49.1282M86.3273 100L124 92.0513L122.655 49.1282M50 49.1282L84.5109 38L122.655 49.1282" stroke="white" stroke-width="2"/>
<path d="M47.5109 58L13 69.1282L49.3273 81.8462L85.6545 69.1282L47.5109 58Z" fill="#27E167"/>
<path d="M49.3273 120V81.8462L13 69.1282V112.051L49.3273 120Z" fill="#27E167"/>
<path d="M49.3273 81.8462V120L87 112.051L85.6545 69.1282L49.3273 81.8462Z" fill="#27E167"/>
<path d="M49.3273 81.8462V120M49.3273 81.8462L13 69.1282M49.3273 81.8462L85.6545 69.1282M49.3273 120L13 112.051V69.1282M49.3273 120L87 112.051L85.6545 69.1282M13 69.1282L47.5109 58L85.6545 69.1282" stroke="white" stroke-width="2"/>
</svg>
